<svg width="38" height="76" viewBox="0 0 38 76" fill="none" xmlns="http://www.w3.org/2000/svg">
<g clip-path="url(#clip0_227_675)">
<path d="M37.9999 47.8483C37.9978 45.1929 37.4239 42.5684 36.3164 40.1489C36.3164 40.1489 36.3164 40.1489 36.3164 40.1489C34.9571 37.1577 32.8278 34.5706 30.1408 32.6457C27.4538 30.7208 24.3029 29.5252 21.0022 29.1782C17.7015 28.8312 14.3664 29.3448 11.3294 30.6679C8.29239 31.9911 5.65952 34.0774 3.69332 36.7191C1.72712 39.3607 0.496295 42.4652 0.123506 45.7232C-0.249284 48.9813 0.248987 52.2789 1.56869 55.2873C2.88839 58.2958 4.9834 60.91 7.64483 62.8694C10.3063 64.8287 13.4411 66.0647 16.737 66.4541L12.6702 75.9784C12.6702 75.9784 26.882 70.374 33.8348 59.5322C36.5296 56.2197 37.9989 52.0978 37.9999 47.8483V47.8483Z" fill="#004EFF"/>
<path d="M18.9891 37.4061C29.4463 37.4061 37.9235 29.0324 37.9235 18.703C37.9235 8.37364 29.4463 0 18.9891 0C8.53191 0 0.0546875 8.37364 0.0546875 18.703C0.0546875 29.0324 8.53191 37.4061 18.9891 37.4061Z" fill="#00FFF5"/>
</g>
<defs>
<clipPath id="clip0_227_675">
<rect width="38" height="76" fill="white"/>
</clipPath>
</defs>
</svg>
